<svg xmlns="http://www.w3.org/2000/svg" version="1.1" xmlns:xlink="http://www.w3.org/1999/xlink" xmlns:svgjs="http://svgjs.com/svgjs" width="1440" height="560" preserveAspectRatio="none" viewBox="0 0 1440 560"><g mask="url(&quot;#SvgjsMask1007&quot;)" fill="none"><path d="M475.9 116.31 L440.92 128.45L441.32863285392955 105.29863285392956z" fill="#e73635"></path><circle r="46.666666666666664" cx="193.41" cy="46.52" stroke="#d3b714" stroke-width="1.43" stroke-dasharray="3, 2"></circle><path d="M1561.22 719.39 L1409.18 710.53L1379.6110794073488 820.5489205926514z" stroke="#e73635" stroke-width="1.64"></path><path d="M1444.13 420.67 L1418.15 269.19L1335.5258789090099 440.5441210909902z" stroke="#d3b714" stroke-width="2.75" stroke-dasharray="3, 3"></path><path d="M807.81 407.39000000000004 L745.53 368.74L734.498160771333 430.236839228667z" fill="#e73635"></path><rect width="130" height="130" clip-path="url(&quot;#SvgjsClipPath1008&quot;)" x="301.71" y="168.89" fill="url(#SvgjsPattern1009)" transform="rotate(111.49, 366.71, 233.89)"></rect><rect width="129.8" height="129.8" clip-path="url(&quot;#SvgjsClipPath1010&quot;)" x="1035.29" y="482.72" fill="url(#SvgjsPattern1011)" transform="rotate(233.83, 1100.19, 547.62)"></rect><path d="M347.78 127.49000000000001 L253.87 184.49L245.02427420776647 100.18927420776649z" fill="#d3b714"></path><circle r="46.666666666666664" cx="496.84" cy="384.98" stroke="#d3b714" stroke-width="1" stroke-dasharray="4, 4"></circle><rect width="240" height="240" clip-path="url(&quot;#SvgjsClipPath1012&quot;)" x="38.91" y="238.2" fill="url(#SvgjsPattern1013)" transform="rotate(94.54, 158.91, 358.2)"></rect><path d="M212.72 544.59a5.6 5.6 0 1 0 10.75 3.13 5.6 5.6 0 1 0-10.75-3.13zM228.08 549.07a5.6 5.6 0 1 0 10.75 3.13 5.6 5.6 0 1 0-10.75-3.13zM243.44 553.54a5.6 5.6 0 1 0 10.75 3.13 5.6 5.6 0 1 0-10.75-3.13zM258.8 558.02a5.6 5.6 0 1 0 10.75 3.13 5.6 5.6 0 1 0-10.75-3.13zM177.52 551a5.6 5.6 0 1 0 10.75 3.14 5.6 5.6 0 1 0-10.75-3.14zM192.88 555.48a5.6 5.6 0 1 0 10.75 3.13 5.6 5.6 0 1 0-10.75-3.13zM208.24 559.95a5.6 5.6 0 1 0 10.75 3.14 5.6 5.6 0 1 0-10.75-3.14zM223.6 564.43a5.6 5.6 0 1 0 10.76 3.13 5.6 5.6 0 1 0-10.76-3.13zM142.32 557.42a5.6 5.6 0 1 0 10.75 3.13 5.6 5.6 0 1 0-10.75-3.13zM157.68 561.89a5.6 5.6 0 1 0 10.75 3.13 5.6 5.6 0 1 0-10.75-3.13zM173.04 566.37a5.6 5.6 0 1 0 10.76 3.13 5.6 5.6 0 1 0-10.76-3.13zM188.4 570.84a5.6 5.6 0 1 0 10.76 3.13 5.6 5.6 0 1 0-10.76-3.13z" fill="#037b0b"></path><circle r="54.77110356844981" cx="971.63" cy="23.13" fill="#e73635"></circle></g><defs><mask id="SvgjsMask1007"><rect width="1440" height="560" fill="#ffffff"></rect></mask><pattern x="0" y="0" width="130" height="13" patternUnits="userSpaceOnUse" id="SvgjsPattern1009"><rect width="130" height="6.5" x="0" y="0" fill="#e73635"></rect><rect width="130" height="6.5" x="0" y="6.5" fill="rgba(0, 0, 0, 0)"></rect></pattern><clipPath id="SvgjsClipPath1008"><circle r="32.5" cx="366.71" cy="233.89"></circle></clipPath><pattern x="0" y="0" width="12.98" height="12.98" patternUnits="userSpaceOnUse" id="SvgjsPattern1011"><path d="M0 12.98L6.49 0L12.98 12.98" stroke="#e73635" fill="none"></path></pattern><clipPath id="SvgjsClipPath1010"><circle r="32.45" cx="1100.19" cy="547.62"></circle></clipPath><pattern x="0" y="0" width="6" height="6" patternUnits="userSpaceOnUse" id="SvgjsPattern1013"><path d="M3 1L3 5M1 3L5 3" stroke="#037b0b" fill="none" stroke-width="1"></path></pattern><clipPath id="SvgjsClipPath1012"><circle r="60" cx="158.91" cy="358.2"></circle></clipPath></defs></svg>