<?xml version="1.0" encoding="UTF-8" standalone="no"?>
<!-- Created with Inkscape (http://www.inkscape.org/) -->

<svg
   xmlns:dc="http://purl.org/dc/elements/1.1/"
   xmlns:cc="http://creativecommons.org/ns#"
   xmlns:rdf="http://www.w3.org/1999/02/22-rdf-syntax-ns#"
   xmlns:svg="http://www.w3.org/2000/svg"
   xmlns="http://www.w3.org/2000/svg"
   xmlns:sodipodi="http://sodipodi.sourceforge.net/DTD/sodipodi-0.dtd"
   xmlns:inkscape="http://www.inkscape.org/namespaces/inkscape"
   version="1.1"
   id="svg7273"
   xml:space="preserve"
   width="800"
   height="800"
   viewBox="0 0 800 800"
   sodipodi:docname="logo-design-element-#11.svg"
   inkscape:version="0.92.4 (5da689c313, 2019-01-14)"><metadata
     id="metadata7279"><rdf:RDF><cc:Work
         rdf:about=""><dc:format>image/svg+xml</dc:format><dc:type
           rdf:resource="http://purl.org/dc/dcmitype/StillImage" /><dc:title></dc:title></cc:Work></rdf:RDF></metadata><defs
     id="defs7277"><clipPath
       clipPathUnits="userSpaceOnUse"
       id="clipPath7289"><path
         d="M 0,600 H 600 V 0 H 0 Z"
         id="path7287"
         inkscape:connector-curvature="0" /></clipPath><linearGradient
       x1="0"
       y1="0"
       x2="1"
       y2="0"
       gradientUnits="userSpaceOnUse"
       gradientTransform="matrix(417.82568,0,0,-417.82568,108.32178,330.24316)"
       spreadMethod="pad"
       id="linearGradient7313"><stop
         style="stop-opacity:1;stop-color:#1aaeec"
         offset="0"
         id="stop7303" /><stop
         style="stop-opacity:1;stop-color:#4253a7"
         offset="0.297753"
         id="stop7305" /><stop
         style="stop-opacity:1;stop-color:#e70c8d"
         offset="0.646067"
         id="stop7307" /><stop
         style="stop-opacity:1;stop-color:#e33c47"
         offset="0.955056"
         id="stop7309" /><stop
         style="stop-opacity:1;stop-color:#e33c47"
         offset="1"
         id="stop7311" /></linearGradient></defs><sodipodi:namedview
     pagecolor="#ffffff"
     bordercolor="#666666"
     borderopacity="1"
     objecttolerance="10"
     gridtolerance="10"
     guidetolerance="10"
     inkscape:pageopacity="0"
     inkscape:pageshadow="2"
     inkscape:window-width="724"
     inkscape:window-height="480"
     id="namedview7275"
     showgrid="false"
     inkscape:zoom="0.295"
     inkscape:cx="400"
     inkscape:cy="400"
     inkscape:window-x="0"
     inkscape:window-y="0"
     inkscape:window-maximized="0"
     inkscape:current-layer="g7281" /><g
     id="g7281"
     inkscape:groupmode="layer"
     inkscape:label="logotype-element-11-publicdomainvectors.org"
     transform="matrix(1.3333333,0,0,-1.3333333,0,800)"><g
       id="g7283"><g
         id="g7285"
         clip-path="url(#clipPath7289)"><g
           id="g7291"><g
             id="g7293"><g
               id="g7299"><g
                 id="g7301"><path
                   d="m 268.41,317.974 c 0.762,-5.238 5.627,-8.863 10.866,-8.095 5.237,0.757 8.867,5.623 8.101,10.865 -0.763,5.234 -5.633,8.868 -10.873,8.097 -5.234,-0.755 -8.861,-5.627 -8.094,-10.867 m 128.623,68.95 c -0.23,-7.818 5.925,-14.352 13.739,-14.589 7.825,-0.223 14.351,5.925 14.59,13.748 0.229,7.818 -5.92,14.357 -13.736,14.595 -7.83,0.224 -14.357,-5.923 -14.593,-13.754 m 47.627,17.966 c -0.764,-8.635 5.621,-16.259 14.254,-17.01 8.638,-0.769 16.254,5.617 17.018,14.251 0.759,8.631 -5.625,16.25 -14.256,17.006 -8.638,0.765 -16.26,-5.61 -17.016,-14.247 M 316.215,261.509 c 0.265,-2.755 2.712,-4.778 5.458,-4.513 2.745,0.261 4.764,2.702 4.503,5.455 -0.261,2.748 -2.7,4.764 -5.453,4.503 -2.752,-0.26 -4.769,-2.697 -4.508,-5.445 m 37.986,22.845 c 0.131,-3.602 3.163,-6.417 6.766,-6.284 3.607,0.124 6.42,3.154 6.287,6.759 -0.137,3.597 -3.164,6.417 -6.767,6.286 -3.593,-0.129 -6.418,-3.161 -6.286,-6.761 m 40.418,20.697 c -0.107,-4.445 3.42,-8.135 7.871,-8.226 4.451,-0.093 8.139,3.427 8.232,7.883 0.091,4.444 -3.442,8.125 -7.882,8.225 -4.453,0.099 -8.132,-3.431 -8.221,-7.882 m 42.697,18.336 c -0.415,-5.268 3.519,-9.891 8.799,-10.303 5.275,-0.421 9.893,3.508 10.314,8.784 0.423,5.289 -3.516,9.903 -8.796,10.318 -5.27,0.418 -9.883,-3.51 -10.317,-8.799 m 44.875,15.802 c -0.847,-6.078 3.403,-11.689 9.476,-12.532 6.083,-0.844 11.691,3.4 12.544,9.481 0.833,6.078 -3.403,11.692 -9.49,12.537 -6.08,0.837 -11.687,-3.41 -12.53,-9.486 M 358.105,201.608 c 0.011,-0.228 0.208,-0.41 0.433,-0.391 0.238,0.007 0.414,0.2 0.406,0.432 -0.021,0.234 -0.205,0.411 -0.428,0.396 -0.234,-0.012 -0.421,-0.21 -0.411,-0.437 m 35.428,20.705 c -0.008,-1.075 0.844,-1.946 1.919,-1.959 1.074,-0.012 1.965,0.833 1.972,1.914 0.017,1.076 -0.841,1.961 -1.914,1.97 -1.079,0.017 -1.965,-0.853 -1.977,-1.925 m 37.745,18.663 c -0.137,-1.912 1.295,-3.576 3.215,-3.714 1.911,-0.133 3.585,1.301 3.714,3.222 0.135,1.905 -1.301,3.566 -3.221,3.709 -1.914,0.123 -3.568,-1.308 -3.708,-3.217 m 39.929,16.393 c -0.35,-2.74 1.579,-5.251 4.314,-5.599 2.745,-0.358 5.249,1.574 5.607,4.304 0.355,2.744 -1.568,5.259 -4.32,5.609 -2.738,0.36 -5.244,-1.582 -5.601,-4.314 m 41.988,13.966 c -0.67,-3.549 1.659,-6.966 5.198,-7.641 3.542,-0.67 6.964,1.658 7.64,5.198 0.666,3.542 -1.652,6.952 -5.194,7.626 -3.549,0.675 -6.961,-1.659 -7.644,-5.183 m -183.691,10.082 c 5.236,0.764 8.864,5.629 8.094,10.868 -0.754,5.237 -5.624,8.865 -10.862,8.101 -5.236,-0.762 -8.87,-5.635 -8.1,-10.873 0.757,-5.236 5.628,-8.862 10.868,-8.096 m -68.95,128.625 c 7.817,-0.231 14.351,5.924 14.589,13.739 0.224,7.825 -5.923,14.352 -13.749,14.591 -7.817,0.228 -14.358,-5.922 -14.594,-13.738 -0.224,-7.829 5.923,-14.358 13.754,-14.592 m -17.968,47.625 c 8.637,-0.76 16.262,5.623 17.012,14.257 0.769,8.636 -5.617,16.251 -14.252,17.016 -8.631,0.762 -16.248,-5.627 -17.006,-14.256 -0.763,-8.637 5.611,-16.257 14.246,-17.017 M 385.969,329.225 c 2.755,0.263 4.778,2.71 4.513,5.457 -0.26,2.747 -2.702,4.764 -5.456,4.503 -2.749,-0.263 -4.762,-2.702 -4.501,-5.453 0.258,-2.753 2.696,-4.769 5.444,-4.507 m -22.846,37.987 c 3.603,0.13 6.417,3.162 6.284,6.766 -0.123,3.605 -3.154,6.416 -6.758,6.286 -3.596,-0.137 -6.418,-3.166 -6.286,-6.766 0.127,-3.596 3.16,-6.421 6.76,-6.286 m -20.695,40.417 c 4.442,-0.109 8.134,3.418 8.224,7.871 0.091,4.451 -3.425,8.136 -7.88,8.23 -4.445,0.094 -8.127,-3.438 -8.227,-7.88 -0.099,-4.454 3.429,-8.133 7.883,-8.221 m -18.336,42.698 c 5.267,-0.418 9.889,3.518 10.301,8.796 0.422,5.274 -3.507,9.896 -8.784,10.313 -5.289,0.425 -9.902,-3.514 -10.315,-8.793 -0.419,-5.271 3.509,-9.885 8.798,-10.316 m -15.803,44.874 c 6.08,-0.847 11.69,3.402 12.533,9.474 0.844,6.084 -3.401,11.693 -9.482,12.545 -6.077,0.833 -11.691,-3.404 -12.536,-9.491 -0.839,-6.077 3.409,-11.686 9.485,-12.528 m 137.58,-124.087 c 0.229,0.012 0.41,0.208 0.393,0.434 -0.009,0.236 -0.201,0.413 -0.434,0.404 -0.233,-0.02 -0.41,-0.205 -0.395,-0.429 0.011,-0.233 0.211,-0.421 0.436,-0.409 m -20.705,35.429 c 1.075,-0.008 1.947,0.843 1.96,1.918 0.013,1.074 -0.832,1.965 -1.913,1.97 -1.077,0.019 -1.962,-0.84 -1.972,-1.911 -0.016,-1.081 0.855,-1.966 1.925,-1.977 m -18.662,37.744 c 1.912,-0.138 3.576,1.297 3.713,3.215 0.134,1.911 -1.3,3.586 -3.222,3.712 -1.904,0.138 -3.565,-1.298 -3.711,-3.22 -0.122,-1.912 1.312,-3.568 3.22,-3.707 m -16.395,39.928 c 2.743,-0.349 5.253,1.579 5.6,4.316 0.36,2.742 -1.572,5.247 -4.301,5.607 -2.748,0.355 -5.26,-1.57 -5.61,-4.321 -0.361,-2.735 1.582,-5.245 4.311,-5.602 m -13.963,41.989 c 3.546,-0.67 6.963,1.659 7.64,5.198 0.67,3.542 -1.658,6.964 -5.196,7.64 -3.544,0.667 -6.952,-1.651 -7.629,-5.195 -0.673,-3.549 1.661,-6.96 5.185,-7.643 M 366.062,342.513 c -0.764,5.237 -5.628,8.864 -10.868,8.094 -5.237,-0.756 -8.865,-5.624 -8.103,-10.863 0.765,-5.235 5.636,-8.87 10.875,-8.099 5.234,0.756 8.861,5.628 8.096,10.868 M 237.437,273.564 c 0.229,7.817 -5.927,14.35 -13.74,14.587 -7.826,0.224 -14.352,-5.923 -14.589,-13.746 -0.232,-7.82 5.92,-14.358 13.736,-14.597 7.83,-0.223 14.358,5.924 14.593,13.756 m -47.624,-17.967 c 0.759,8.636 -5.624,16.259 -14.257,17.01 -8.638,0.769 -16.254,-5.618 -17.017,-14.252 -0.762,-8.63 5.626,-16.248 14.255,-17.004 8.638,-0.767 16.259,5.609 17.019,14.246 m 128.442,143.381 c -0.266,2.752 -2.711,4.777 -5.461,4.512 -2.746,-0.26 -4.76,-2.701 -4.499,-5.455 0.261,-2.749 2.701,-4.763 5.453,-4.501 2.752,0.257 4.766,2.695 4.507,5.444 m -37.987,-22.845 c -0.133,3.603 -3.162,6.416 -6.768,6.284 -3.604,-0.124 -6.415,-3.154 -6.284,-6.761 0.137,-3.595 3.166,-6.416 6.764,-6.285 3.599,0.129 6.421,3.161 6.288,6.762 M 239.85,355.436 c 0.108,4.444 -3.419,8.135 -7.872,8.225 -4.45,0.093 -8.136,-3.427 -8.229,-7.881 -0.095,-4.446 3.438,-8.125 7.881,-8.226 4.453,-0.098 8.132,3.43 8.22,7.882 M 197.15,337.1 c 0.419,5.269 -3.517,9.891 -8.795,10.303 -5.274,0.421 -9.896,-3.507 -10.312,-8.784 -0.426,-5.288 3.513,-9.903 8.794,-10.318 5.269,-0.418 9.883,3.51 10.313,8.799 m -44.872,-15.802 c 0.847,6.077 -3.402,11.689 -9.475,12.532 -6.084,0.844 -11.694,-3.4 -12.545,-9.481 -0.832,-6.078 3.403,-11.692 9.491,-12.537 6.078,-0.836 11.687,3.41 12.529,9.486 m 124.087,137.58 c -0.014,0.229 -0.21,0.412 -0.433,0.393 -0.235,-0.008 -0.416,-0.199 -0.406,-0.435 0.022,-0.232 0.205,-0.408 0.43,-0.393 0.233,0.011 0.422,0.208 0.409,0.435 m -35.429,-20.706 c 0.008,1.075 -0.843,1.947 -1.917,1.961 -1.076,0.012 -1.968,-0.831 -1.972,-1.913 -0.018,-1.076 0.84,-1.962 1.911,-1.971 1.082,-0.018 1.964,0.853 1.978,1.923 m -37.744,-18.66 c 0.138,1.91 -1.299,3.573 -3.215,3.714 -1.913,0.133 -3.586,-1.302 -3.714,-3.224 -0.135,-1.903 1.3,-3.566 3.221,-3.709 1.913,-0.123 3.569,1.31 3.708,3.219 m -39.929,-16.395 c 0.349,2.741 -1.579,5.252 -4.315,5.6 -2.744,0.358 -5.248,-1.574 -5.608,-4.302 -0.355,-2.746 1.57,-5.262 4.321,-5.61 2.737,-0.36 5.245,1.581 5.602,4.312 m -41.989,-13.965 c 0.671,3.549 -1.658,6.966 -5.197,7.64 -3.543,0.67 -6.964,-1.657 -7.641,-5.195 -0.666,-3.544 1.651,-6.953 5.196,-7.628 3.547,-0.676 6.959,1.659 7.642,5.183 M 304.965,379.07 c -5.237,-0.763 -8.865,-5.629 -8.093,-10.867 0.755,-5.239 5.624,-8.867 10.862,-8.102 5.234,0.764 8.87,5.635 8.1,10.873 -0.759,5.235 -5.63,8.863 -10.869,8.096 m 68.949,-128.626 c -7.817,0.232 -14.349,-5.923 -14.587,-13.739 -0.223,-7.824 5.924,-14.351 13.746,-14.589 7.82,-0.229 14.358,5.921 14.594,13.736 0.227,7.83 -5.923,14.359 -13.753,14.592 m 17.968,-47.624 c -8.637,0.763 -16.261,-5.623 -17.012,-14.257 -0.768,-8.636 5.618,-16.253 14.252,-17.016 8.631,-0.763 16.249,5.624 17.006,14.259 0.766,8.633 -5.61,16.254 -14.246,17.014 M 248.501,331.263 c -2.754,-0.265 -4.777,-2.711 -4.513,-5.459 0.26,-2.747 2.7,-4.762 5.455,-4.502 2.749,0.263 4.763,2.701 4.5,5.453 -0.256,2.752 -2.694,4.768 -5.442,4.508 m 22.844,-37.987 c -3.604,-0.13 -6.417,-3.162 -6.284,-6.767 0.123,-3.605 3.154,-6.415 6.758,-6.284 3.598,0.135 6.416,3.165 6.288,6.765 -0.13,3.595 -3.161,6.42 -6.762,6.286 m 20.697,-40.418 c -4.445,0.108 -8.135,-3.42 -8.225,-7.871 -0.091,-4.449 3.427,-8.137 7.881,-8.231 4.446,-0.092 8.125,3.441 8.224,7.882 0.1,4.453 -3.428,8.133 -7.88,8.22 m 18.337,-42.697 c -5.271,0.418 -9.891,-3.518 -10.302,-8.799 -0.424,-5.273 3.508,-9.892 8.781,-10.312 5.289,-0.423 9.905,3.514 10.318,8.795 0.419,5.269 -3.509,9.883 -8.797,10.316 m 15.803,-44.876 c -6.08,0.849 -11.69,-3.401 -12.534,-9.472 -0.844,-6.085 3.401,-11.693 9.481,-12.546 6.076,-0.833 11.69,3.403 12.538,9.491 0.835,6.079 -3.411,11.685 -9.485,12.527 M 188.598,289.372 c -0.228,-0.011 -0.41,-0.207 -0.391,-0.433 0.006,-0.237 0.199,-0.413 0.434,-0.406 0.233,0.023 0.408,0.206 0.393,0.43 -0.012,0.234 -0.207,0.421 -0.436,0.409 m 20.708,-35.427 c -1.076,0.007 -1.947,-0.844 -1.96,-1.921 -0.013,-1.073 0.833,-1.962 1.914,-1.97 1.074,-0.017 1.961,0.841 1.971,1.915 0.016,1.079 -0.855,1.964 -1.925,1.976 m 18.659,-37.744 c -1.909,0.136 -3.571,-1.297 -3.714,-3.217 -0.132,-1.909 1.301,-3.585 3.223,-3.71 1.905,-0.137 3.566,1.295 3.711,3.217 0.123,1.914 -1.31,3.57 -3.22,3.71 m 16.397,-39.93 c -2.743,0.351 -5.252,-1.578 -5.601,-4.314 -0.358,-2.744 1.572,-5.249 4.303,-5.606 2.746,-0.357 5.26,1.567 5.61,4.319 0.359,2.737 -1.584,5.243 -4.312,5.601 m 19.146,-49.632 c -0.674,-3.542 -4.082,-5.861 -7.626,-5.195 -3.538,0.677 -5.865,4.099 -5.199,7.641 0.676,3.54 4.094,5.868 7.643,5.197 3.524,-0.682 5.858,-4.094 5.182,-7.643"
                   style="fill:url(#linearGradient7313);stroke:none"
                   id="path7315"
                   inkscape:connector-curvature="0" /></g></g></g></g><path
           d="m 268.41,317.974 c 0.762,-5.238 5.627,-8.863 10.866,-8.095 5.237,0.757 8.867,5.623 8.101,10.865 -0.763,5.234 -5.633,8.868 -10.873,8.097 -5.234,-0.755 -8.861,-5.627 -8.094,-10.867 z m 128.623,68.95 c -0.23,-7.818 5.925,-14.352 13.739,-14.589 7.825,-0.223 14.351,5.925 14.59,13.748 0.229,7.818 -5.92,14.357 -13.736,14.595 -7.83,0.224 -14.357,-5.923 -14.593,-13.754 z m 47.627,17.966 c -0.764,-8.635 5.621,-16.259 14.254,-17.01 8.638,-0.769 16.254,5.617 17.018,14.251 0.759,8.631 -5.625,16.25 -14.256,17.006 -8.638,0.765 -16.26,-5.61 -17.016,-14.247 z M 316.215,261.509 c 0.265,-2.755 2.712,-4.778 5.458,-4.513 2.745,0.261 4.764,2.702 4.503,5.455 -0.261,2.748 -2.7,4.764 -5.453,4.503 -2.752,-0.26 -4.769,-2.697 -4.508,-5.445 z m 37.986,22.845 c 0.131,-3.602 3.163,-6.417 6.766,-6.284 3.607,0.124 6.42,3.154 6.287,6.759 -0.137,3.597 -3.164,6.417 -6.767,6.286 -3.593,-0.129 -6.418,-3.161 -6.286,-6.761 z m 40.418,20.697 c -0.107,-4.445 3.42,-8.135 7.871,-8.226 4.451,-0.093 8.139,3.427 8.232,7.883 0.091,4.444 -3.442,8.125 -7.882,8.225 -4.453,0.099 -8.132,-3.431 -8.221,-7.882 z m 42.697,18.336 c -0.415,-5.268 3.519,-9.891 8.799,-10.303 5.275,-0.421 9.893,3.508 10.314,8.784 0.423,5.289 -3.516,9.903 -8.796,10.318 -5.27,0.418 -9.883,-3.51 -10.317,-8.799 z m 44.875,15.802 c -0.847,-6.078 3.403,-11.689 9.476,-12.532 6.083,-0.844 11.691,3.4 12.544,9.481 0.833,6.078 -3.403,11.692 -9.49,12.537 -6.08,0.837 -11.687,-3.41 -12.53,-9.486 z M 358.105,201.608 c 0.011,-0.228 0.208,-0.41 0.433,-0.391 0.238,0.007 0.414,0.2 0.406,0.432 -0.021,0.234 -0.205,0.411 -0.428,0.396 -0.234,-0.012 -0.421,-0.21 -0.411,-0.437 z m 35.428,20.705 c -0.008,-1.075 0.844,-1.946 1.919,-1.959 1.074,-0.012 1.965,0.833 1.972,1.914 0.017,1.076 -0.841,1.961 -1.914,1.97 -1.079,0.017 -1.965,-0.853 -1.977,-1.925 z m 37.745,18.663 c -0.137,-1.912 1.295,-3.576 3.215,-3.714 1.911,-0.133 3.585,1.301 3.714,3.222 0.135,1.905 -1.301,3.566 -3.221,3.709 -1.914,0.123 -3.568,-1.308 -3.708,-3.217 z m 39.929,16.393 c -0.35,-2.74 1.579,-5.251 4.314,-5.599 2.745,-0.358 5.249,1.574 5.607,4.304 0.355,2.744 -1.568,5.259 -4.32,5.609 -2.738,0.36 -5.244,-1.582 -5.601,-4.314 z m 41.988,13.966 c -0.67,-3.549 1.659,-6.966 5.198,-7.641 3.542,-0.67 6.964,1.658 7.64,5.198 0.666,3.542 -1.652,6.952 -5.194,7.626 -3.549,0.675 -6.961,-1.659 -7.644,-5.183 z m -183.691,10.082 c 5.236,0.764 8.864,5.629 8.094,10.868 -0.754,5.237 -5.624,8.865 -10.862,8.101 -5.236,-0.762 -8.87,-5.635 -8.1,-10.873 0.757,-5.236 5.628,-8.862 10.868,-8.096 z m -68.95,128.625 c 7.817,-0.231 14.351,5.924 14.589,13.739 0.224,7.825 -5.923,14.352 -13.749,14.591 -7.817,0.228 -14.358,-5.922 -14.594,-13.738 -0.224,-7.829 5.923,-14.358 13.754,-14.592 z m -17.968,47.625 c 8.637,-0.76 16.262,5.623 17.012,14.257 0.769,8.636 -5.617,16.251 -14.252,17.016 -8.631,0.762 -16.248,-5.627 -17.006,-14.256 -0.763,-8.637 5.611,-16.257 14.246,-17.017 z M 385.969,329.225 c 2.755,0.263 4.778,2.71 4.513,5.457 -0.26,2.747 -2.702,4.764 -5.456,4.503 -2.749,-0.263 -4.762,-2.702 -4.501,-5.453 0.258,-2.753 2.696,-4.769 5.444,-4.507 z m -22.846,37.987 c 3.603,0.13 6.417,3.162 6.284,6.766 -0.123,3.605 -3.154,6.416 -6.758,6.286 -3.596,-0.137 -6.418,-3.166 -6.286,-6.766 0.127,-3.596 3.16,-6.421 6.76,-6.286 z m -20.695,40.417 c 4.442,-0.109 8.134,3.418 8.224,7.871 0.091,4.451 -3.425,8.136 -7.88,8.23 -4.445,0.094 -8.127,-3.438 -8.227,-7.88 -0.099,-4.454 3.429,-8.133 7.883,-8.221 z m -18.336,42.698 c 5.267,-0.418 9.889,3.518 10.301,8.796 0.422,5.274 -3.507,9.896 -8.784,10.313 -5.289,0.425 -9.902,-3.514 -10.315,-8.793 -0.419,-5.271 3.509,-9.885 8.798,-10.316 z m -15.803,44.874 c 6.08,-0.847 11.69,3.402 12.533,9.474 0.844,6.084 -3.401,11.693 -9.482,12.545 -6.077,0.833 -11.691,-3.404 -12.536,-9.491 -0.839,-6.077 3.409,-11.686 9.485,-12.528 z m 137.58,-124.087 c 0.229,0.012 0.41,0.208 0.393,0.434 -0.009,0.236 -0.201,0.413 -0.434,0.404 -0.233,-0.02 -0.41,-0.205 -0.395,-0.429 0.011,-0.233 0.211,-0.421 0.436,-0.409 z m -20.705,35.429 c 1.075,-0.008 1.947,0.843 1.96,1.918 0.013,1.074 -0.832,1.965 -1.913,1.97 -1.077,0.019 -1.962,-0.84 -1.972,-1.911 -0.016,-1.081 0.855,-1.966 1.925,-1.977 z m -18.662,37.744 c 1.912,-0.138 3.576,1.297 3.713,3.215 0.134,1.911 -1.3,3.586 -3.222,3.712 -1.904,0.138 -3.565,-1.298 -3.711,-3.22 -0.122,-1.912 1.312,-3.568 3.22,-3.707 z m -16.395,39.928 c 2.743,-0.349 5.253,1.579 5.6,4.316 0.36,2.742 -1.572,5.247 -4.301,5.607 -2.748,0.355 -5.26,-1.57 -5.61,-4.321 -0.361,-2.735 1.582,-5.245 4.311,-5.602 z m -13.963,41.989 c 3.546,-0.67 6.963,1.659 7.64,5.198 0.67,3.542 -1.658,6.964 -5.196,7.64 -3.544,0.667 -6.952,-1.651 -7.629,-5.195 -0.673,-3.549 1.661,-6.96 5.185,-7.643 z M 366.062,342.513 c -0.764,5.237 -5.628,8.864 -10.868,8.094 -5.237,-0.756 -8.865,-5.624 -8.103,-10.863 0.765,-5.235 5.636,-8.87 10.875,-8.099 5.234,0.756 8.861,5.628 8.096,10.868 z M 237.437,273.564 c 0.229,7.817 -5.927,14.35 -13.74,14.587 -7.826,0.224 -14.352,-5.923 -14.589,-13.746 -0.232,-7.82 5.92,-14.358 13.736,-14.597 7.83,-0.223 14.358,5.924 14.593,13.756 z m -47.624,-17.967 c 0.759,8.636 -5.624,16.259 -14.257,17.01 -8.638,0.769 -16.254,-5.618 -17.017,-14.252 -0.762,-8.63 5.626,-16.248 14.255,-17.004 8.638,-0.767 16.259,5.609 17.019,14.246 z m 128.442,143.381 c -0.266,2.752 -2.711,4.777 -5.461,4.512 -2.746,-0.26 -4.76,-2.701 -4.499,-5.455 0.261,-2.749 2.701,-4.763 5.453,-4.501 2.752,0.257 4.766,2.695 4.507,5.444 z m -37.987,-22.845 c -0.133,3.603 -3.162,6.416 -6.768,6.284 -3.604,-0.124 -6.415,-3.154 -6.284,-6.761 0.137,-3.595 3.166,-6.416 6.764,-6.285 3.599,0.129 6.421,3.161 6.288,6.762 z M 239.85,355.436 c 0.108,4.444 -3.419,8.135 -7.872,8.225 -4.45,0.093 -8.136,-3.427 -8.229,-7.881 -0.095,-4.446 3.438,-8.125 7.881,-8.226 4.453,-0.098 8.132,3.43 8.22,7.882 z M 197.15,337.1 c 0.419,5.269 -3.517,9.891 -8.795,10.303 -5.274,0.421 -9.896,-3.507 -10.312,-8.784 -0.426,-5.288 3.513,-9.903 8.794,-10.318 5.269,-0.418 9.883,3.51 10.313,8.799 z m -44.872,-15.802 c 0.847,6.077 -3.402,11.689 -9.475,12.532 -6.084,0.844 -11.694,-3.4 -12.545,-9.481 -0.832,-6.078 3.403,-11.692 9.491,-12.537 6.078,-0.836 11.687,3.41 12.529,9.486 z m 124.087,137.58 c -0.014,0.229 -0.21,0.412 -0.433,0.393 -0.235,-0.008 -0.416,-0.199 -0.406,-0.435 0.022,-0.232 0.205,-0.408 0.43,-0.393 0.233,0.011 0.422,0.208 0.409,0.435 z m -35.429,-20.706 c 0.008,1.075 -0.843,1.947 -1.917,1.961 -1.076,0.012 -1.968,-0.831 -1.972,-1.913 -0.018,-1.076 0.84,-1.962 1.911,-1.971 1.082,-0.018 1.964,0.853 1.978,1.923 z m -37.744,-18.66 c 0.138,1.91 -1.299,3.573 -3.215,3.714 -1.913,0.133 -3.586,-1.302 -3.714,-3.224 -0.135,-1.903 1.3,-3.566 3.221,-3.709 1.913,-0.123 3.569,1.31 3.708,3.219 z m -39.929,-16.395 c 0.349,2.741 -1.579,5.252 -4.315,5.6 -2.744,0.358 -5.248,-1.574 -5.608,-4.302 -0.355,-2.746 1.57,-5.262 4.321,-5.61 2.737,-0.36 5.245,1.581 5.602,4.312 z m -41.989,-13.965 c 0.671,3.549 -1.658,6.966 -5.197,7.64 -3.543,0.67 -6.964,-1.657 -7.641,-5.195 -0.666,-3.544 1.651,-6.953 5.196,-7.628 3.547,-0.676 6.959,1.659 7.642,5.183 z M 304.965,379.07 c -5.237,-0.763 -8.865,-5.629 -8.093,-10.867 0.755,-5.239 5.624,-8.867 10.862,-8.102 5.234,0.764 8.87,5.635 8.1,10.873 -0.759,5.235 -5.63,8.863 -10.869,8.096 z m 68.949,-128.626 c -7.817,0.232 -14.349,-5.923 -14.587,-13.739 -0.223,-7.824 5.924,-14.351 13.746,-14.589 7.82,-0.229 14.358,5.921 14.594,13.736 0.227,7.83 -5.923,14.359 -13.753,14.592 z m 17.968,-47.624 c -8.637,0.763 -16.261,-5.623 -17.012,-14.257 -0.768,-8.636 5.618,-16.253 14.252,-17.016 8.631,-0.763 16.249,5.624 17.006,14.259 0.766,8.633 -5.61,16.254 -14.246,17.014 z M 248.501,331.263 c -2.754,-0.265 -4.777,-2.711 -4.513,-5.459 0.26,-2.747 2.7,-4.762 5.455,-4.502 2.749,0.263 4.763,2.701 4.5,5.453 -0.256,2.752 -2.694,4.768 -5.442,4.508 z m 22.844,-37.987 c -3.604,-0.13 -6.417,-3.162 -6.284,-6.767 0.123,-3.605 3.154,-6.415 6.758,-6.284 3.598,0.135 6.416,3.165 6.288,6.765 -0.13,3.595 -3.161,6.42 -6.762,6.286 z m 20.697,-40.418 c -4.445,0.108 -8.135,-3.42 -8.225,-7.871 -0.091,-4.449 3.427,-8.137 7.881,-8.231 4.446,-0.092 8.125,3.441 8.224,7.882 0.1,4.453 -3.428,8.133 -7.88,8.22 z m 18.337,-42.697 c -5.271,0.418 -9.891,-3.518 -10.302,-8.799 -0.424,-5.273 3.508,-9.892 8.781,-10.312 5.289,-0.423 9.905,3.514 10.318,8.795 0.419,5.269 -3.509,9.883 -8.797,10.316 z m 15.803,-44.876 c -6.08,0.849 -11.69,-3.401 -12.534,-9.472 -0.844,-6.085 3.401,-11.693 9.481,-12.546 6.076,-0.833 11.69,3.403 12.538,9.491 0.835,6.079 -3.411,11.685 -9.485,12.527 z M 188.598,289.372 c -0.228,-0.011 -0.41,-0.207 -0.391,-0.433 0.006,-0.237 0.199,-0.413 0.434,-0.406 0.233,0.023 0.408,0.206 0.393,0.43 -0.012,0.234 -0.207,0.421 -0.436,0.409 z m 20.708,-35.427 c -1.076,0.007 -1.947,-0.844 -1.96,-1.921 -0.013,-1.073 0.833,-1.962 1.914,-1.97 1.074,-0.017 1.961,0.841 1.971,1.915 0.016,1.079 -0.855,1.964 -1.925,1.976 z m 18.659,-37.744 c -1.909,0.136 -3.571,-1.297 -3.714,-3.217 -0.132,-1.909 1.301,-3.585 3.223,-3.71 1.905,-0.137 3.566,1.295 3.711,3.217 0.123,1.914 -1.31,3.57 -3.22,3.71 z m 16.397,-39.93 c -2.743,0.351 -5.252,-1.578 -5.601,-4.314 -0.358,-2.744 1.572,-5.249 4.303,-5.606 2.746,-0.357 5.26,1.567 5.61,4.319 0.359,2.737 -1.584,5.243 -4.312,5.601 z m 19.146,-49.632 c -0.674,-3.542 -4.082,-5.861 -7.626,-5.195 -3.538,0.677 -5.865,4.099 -5.199,7.641 0.676,3.54 4.094,5.868 7.643,5.197 3.524,-0.682 5.858,-4.094 5.182,-7.643 z"
           style="fill:none;stroke:#ffffff;stroke-width:0.192;stroke-linecap:butt;stroke-linejoin:miter;stroke-miterlimit:4;stroke-dasharray:none;stroke-opacity:1"
           id="path7317"
           inkscape:connector-curvature="0" /></g></g></g></svg>