<?xml version="1.0" encoding="UTF-8" standalone="no"?>
<!-- Created with Inkscape (http://www.inkscape.org/) -->

<svg
   xmlns:dc="http://purl.org/dc/elements/1.1/"
   xmlns:cc="http://creativecommons.org/ns#"
   xmlns:rdf="http://www.w3.org/1999/02/22-rdf-syntax-ns#"
   xmlns:svg="http://www.w3.org/2000/svg"
   xmlns="http://www.w3.org/2000/svg"
   xmlns:sodipodi="http://sodipodi.sourceforge.net/DTD/sodipodi-0.dtd"
   xmlns:inkscape="http://www.inkscape.org/namespaces/inkscape"
   version="1.1"
   id="svg2317"
   xml:space="preserve"
   width="800"
   height="800"
   viewBox="0 0 800 800"
   sodipodi:docname="halftone-swirl-freesvg.org.svg"
   inkscape:version="0.92.4 (5da689c313, 2019-01-14)"><metadata
     id="metadata2323"><rdf:RDF><cc:Work
         rdf:about=""><dc:format>image/svg+xml</dc:format><dc:type
           rdf:resource="http://purl.org/dc/dcmitype/StillImage" /><dc:title></dc:title></cc:Work></rdf:RDF></metadata><defs
     id="defs2321"><clipPath
       clipPathUnits="userSpaceOnUse"
       id="clipPath2333"><path
         d="M 0,600 H 600 V 0 H 0 Z"
         id="path2331"
         inkscape:connector-curvature="0" /></clipPath></defs><sodipodi:namedview
     pagecolor="#ffffff"
     bordercolor="#666666"
     borderopacity="1"
     objecttolerance="10"
     gridtolerance="10"
     guidetolerance="10"
     inkscape:pageopacity="0"
     inkscape:pageshadow="2"
     inkscape:window-width="1920"
     inkscape:window-height="1018"
     id="namedview2319"
     showgrid="false"
     inkscape:zoom="0.86363793"
     inkscape:cx="605.08475"
     inkscape:cy="355.9322"
     inkscape:window-x="-8"
     inkscape:window-y="-8"
     inkscape:window-maximized="1"
     inkscape:current-layer="g2325" /><g
     id="g2325"
     inkscape:groupmode="layer"
     inkscape:label="halftone-98-publicdomainvectors.org [Converted]"
     transform="matrix(1.3333333,0,0,-1.3333333,0,800)"><g
       id="g2327"><g
         id="g2329"
         clip-path="url(#clipPath2333)"><path
           d="m 258.581,399.822 c -1.566,1.513 -3.184,2.947 -5.398,3.705 3.91,0.828 5.999,2.498 6.739,4.52 1.366,-1.582 2.309,-3.659 4.62,-4.177 -1.911,-1.443 -4.742,-2.41 -5.961,-4.048 m 22.651,0.28 c -1.32,1.561 -2.479,3.368 -4.576,3.804 2.717,1.622 4.093,3.775 5.8,5.826 0.95,-2.558 2.784,-3.381 4.656,-4.301 -1.501,-1.998 -4.9,-3.152 -5.88,-5.329 m 24.352,0.305 c -2.109,2.303 -3.661,5.705 -6.897,5.867 3.079,2.537 5.745,5.37 5.93,8.807 2.764,-3.391 5.449,-6.472 9.699,-6.331 -3.718,-2.534 -7.421,-4.891 -8.732,-8.343 M 249.67,383.672 c -0.45,-0.027 -0.654,0.089 -0.647,0.307 0.37,2.391 -1.045,3.844 -2.792,5.009 3.035,0.234 5.595,1.054 7.894,2.123 0.021,-2.096 1.501,-3.16 1.878,-5.019 -2.598,-0.419 -4.632,-1.265 -6.333,-2.42 m 22.643,-5.219 c -1.559,1.075 -0.795,3.94 -2.447,4.867 2.203,1.233 4.935,2.067 6.528,3.861 1.572,-1.109 1.119,-4.066 3.336,-4.682 -2.415,-1.466 -5.688,-2.028 -7.417,-4.046 m 23.175,-7.068 c -0.408,3.527 -0.877,7.094 -2.683,9.214 4.162,1.323 7.179,3.723 9.133,6.829 1.625,-3.293 2.72,-7.142 6.656,-7.85 -5.219,-2.126 -10.061,-4.265 -13.106,-8.193 m -65.307,-4.627 c 2.526,3.513 3.472,6.841 0.617,9.064 4.163,-0.979 7.952,-0.79 11.394,0.131 -1.44,-2.961 -0.67,-5.038 0.746,-7.035 -4.746,-0.003 -9.106,-0.219 -12.757,-2.16 m 20.47,-11.587 c 0.759,3.091 2.86,6.798 0.673,8.648 3.687,0.646 8.011,0.489 10.944,2.722 0.536,-2.548 -0.631,-5.962 1.983,-7.51 -4.813,-0.935 -9.725,-1.259 -13.6,-3.86 m -39.786,40.032 c -3.011,-4.265 7.831,-11.462 15.143,-8.774 -2.575,-3.07 -0.098,-5.908 0.51,-7.818 -10.41,3.961 -20.206,-0.533 -17.264,-7.457 2.099,-4.91 12.859,-8.868 18.246,-5.68 -6.46,-4.735 -6.438,-11.586 1.004,-15.185 4.539,-2.193 10.88,-1.304 15.024,-0.131 -9.559,-9.61 1.74,-20.957 16.615,-16.037 2.823,0.95 4.611,2.63 7.54,3.897 -8.147,-9.23 -8.464,-17.942 2.256,-20.161 10.123,-2.058 22.684,5.973 26.945,13.662 9.591,17.461 -13.17,20.028 -27.467,8.17 1.975,2.169 3.611,4.215 4.506,6.171 1.867,4.047 -0.472,6.683 0.561,9.059 5.574,-0.511 10.947,3.937 13.935,5.438 -1.74,-8.688 2.323,-14.888 12.841,-12.893 16.955,3.258 23.431,28.26 13.713,31.531 8.888,1.993 12.771,8.32 15.054,15.047 0.186,-11.125 5.899,-17.824 15.828,-13.453 9.381,4.148 13.639,16.878 11.073,24.684 -5.119,15.426 -23.459,7.502 -26.553,-7.413 -0.281,9.078 -6.547,10.66 -9.65,11.98 8.035,4.814 9.586,13.962 4.351,19.592 -8.24,8.813 -21.26,0.082 -21.49,-8.058 -3.307,4.323 -7.787,4.73 -12.151,4.095 6.169,3.076 6.079,8.81 3.483,11.066 -6.105,5.227 -14.762,2.168 -18.389,-2.118 -2.708,-3.202 -0.522,-6.785 3.501,-8.971 2.435,-1.336 5.486,-0.993 8.397,-1.217 -4.41,-1.423 -5.91,-5.546 -7.25,-7.054 -2.12,2.529 -6.545,2.432 -8.653,2.714 4.886,3.204 6.106,7.432 1.53,9.751 -4.868,2.431 -11.373,0.22 -14.677,-2.088 -6.969,-4.893 -1.364,-9.884 7.226,-9.396 -4.627,-1.876 -5.075,-4.7 -6.7,-6.103 -6.117,7.874 -23.092,0.016 -17.855,-6.246 0.875,-1.047 3.431,-1.664 4.257,-2.494 -4.524,-0.693 -6.551,-2.126 -8.437,-3.658 -0.222,3.175 -3.747,4.548 -8.334,4.626 -6.616,0.108 -9.917,-1.332 -9.657,-3.797 0.247,-2.293 4.595,-5.043 9.477,-5.315 2.947,-0.171 4.911,0.876 7.097,1.79 -1.03,-2.84 1.647,-4.696 2.669,-5.982 -4.273,0.359 -7.635,-1.211 -9.688,-1.669 3.356,7.684 -15.396,10.338 -18.567,5.895 m -72.234,-84 c 0.248,0.752 0.497,1.479 0.767,2.235 l 0.171,0.122 c -0.627,-1.898 -0.93,-2.67 -0.938,-2.357 m 6.155,13.182 c -1.395,-3.481 1.728,4.68 0.815,2.148 -0.009,-0.061 -0.49,-1.301 -0.815,-2.148 m 4.885,11.977 c 0.306,0.739 0.614,1.453 0.917,2.166 l 0.021,0.125 c -0.791,-1.838 -1.089,-2.598 -0.938,-2.291 m -7.764,-7.544 c 0.269,0.623 0.541,1.256 0.817,1.888 0.105,0.07 0.208,0.122 0.303,0.189 -0.647,-1.602 -1.013,-2.291 -1.12,-2.077 m 8.629,13.396 c 1.477,2.969 1.445,2.519 1.374,2.257 -0.572,-2.062 -4.747,-9.031 -1.374,-2.257 m 6.728,10.29 c -3.194,-5.971 0.086,0.693 2.474,4.746 -0.056,-0.136 0.592,0.974 0.068,0.006 -0.158,-0.323 -1.197,-2.187 -2.542,-4.752 m -3.713,1.538 c -1.943,-2.676 1.326,3.085 0.8,1.489 0.103,0.009 -0.453,-0.875 -0.8,-1.489 m 9.644,9.574 c -0.382,-0.812 0.222,0.243 1.948,3.15 1.846,3.196 -0.472,-0.416 -1.948,-3.15 m 6.388,13.002 c -1.648,-2.999 2.604,3.631 1.132,1.721 -0.058,-0.006 -0.686,-1.023 -1.132,-1.721 m -7.229,-12.793 c -1.023,-1.512 -1.858,-2.367 -1.357,-1.356 0.407,0.795 2.018,3.327 3.051,4.793 2.524,3.396 1.645,1.534 -1.694,-3.437 m 12.429,24.384 c 0.41,0.6 0.807,1.191 1.222,1.777 -0.029,0.062 -0.055,0.129 -0.083,0.201 -1.069,-1.482 -1.445,-2.156 -1.139,-1.978 M 153.13,363.813 c 0.28,0.442 0.567,0.874 0.847,1.312 0.162,0.046 0.322,0.122 0.488,0.167 -0.641,-1.084 -1.077,-1.582 -1.335,-1.479 m 15.213,7.753 c 0.181,0.447 7.719,10.621 7.178,9.91 -0.593,-0.787 -7.422,-10.538 -7.178,-9.91 m -3.406,2.663 c 0.652,0.805 1.855,2.039 1.725,1.471 -1.111,-2.489 -5.206,-5.787 -1.725,-1.471 m 11.771,9.493 c -0.307,-0.849 6.899,8.304 6.717,8.562 -0.231,0.263 -6.458,-7.879 -6.717,-8.562 m 11.006,16.759 c -3.304,-3.879 -3.746,-5.387 0.271,-0.742 1.865,2.156 2.755,3.404 2.417,3.355 -0.416,-0.042 -1.695,-1.442 -2.688,-2.613 m -15.011,-20.666 c -1.438,-0.982 5.244,6.72 6.429,7.494 1.403,0.883 -5.353,-6.731 -6.429,-7.494 m 20.124,30.246 c -0.317,-0.874 0.542,-0.098 2.68,2.23 2.225,2.768 -0.963,0.199 -2.68,-2.23 m -29.016,-29.383 c -2.183,-1.77 0.754,1.978 0.681,0.971 0.171,0.017 -0.373,-0.573 -0.681,-0.971 m 20.074,10.829 c -2.158,-2.417 -3.03,-3.342 -1.751,-1.872 2.258,2.604 8.843,8.895 9.184,9.431 0.208,0.33 -4.269,-4.026 -7.433,-7.559 m 15.638,31.001 c -1.936,-2.65 3.489,2.715 1.474,1.39 -0.113,0.037 -0.906,-0.817 -1.474,-1.39 m -23.65,-34.759 c -1.122,-0.994 -2.482,-1.738 -2.247,-1.166 0.218,0.458 1.662,2.013 2.697,2.94 2.786,2.217 3.064,1.468 -0.45,-1.774 m 17.469,14.995 c -2.213,-2.45 -2.834,-3.471 -1.27,-2.111 2.749,2.406 9.725,8.7 9.581,9.408 -0.101,0.519 -5.126,-3.751 -8.311,-7.297 m 11.227,30.611 c 0.513,0.498 1.022,0.988 1.544,1.484 -0.058,0.093 -0.121,0.185 -0.196,0.265 -1.361,-1.205 -1.807,-1.815 -1.348,-1.749 m -45.857,-45.058 c 0.234,0.291 0.469,0.571 0.702,0.859 0.21,-0.001 0.422,0.003 0.626,-0.011 -0.475,-0.727 -0.922,-1.022 -1.328,-0.848 m 48.395,30.451 c -7.357,-6.008 -7.223,-8.039 -1.435,-3.229 2.566,2.128 4.939,4.408 5.11,5.127 0.175,0.813 -1.352,0.002 -3.675,-1.898 m -16.008,-19.632 c -6.745,-5.801 -9.995,-7.558 -3.454,-2.11 2.086,1.744 4.281,3.199 4.863,3.471 0.431,0.2 -0.482,-0.566 -1.409,-1.361 m -19.411,-5.615 c 0.575,0.491 1.811,1.18 2.039,0.786 -0.007,-1.573 -5.122,-3.363 -2.039,-0.786 m 38.798,31.479 c 0.042,-1.429 8.826,5.605 8.258,6.583 -0.611,1.008 -8.286,-5.41 -8.258,-6.583 m -5.509,-14.833 c -7.421,-4.827 -14.354,-11.393 -8.097,-6.543 4.215,3.262 8.555,6.115 9.44,7.052 0.514,0.551 -0.479,0.052 -1.343,-0.509 m 16.072,29.715 c -4.603,-4.216 1.594,-1.413 4.632,1.956 -0.219,0.12 0.532,1.169 -0.35,0.649 -0.456,0.114 -2.143,-0.973 -4.282,-2.605 m -38.036,-43.056 c -2.519,-0.766 3.137,3.539 5.38,4.116 2.759,0.729 -3.424,-3.513 -5.38,-4.116 m 31.908,22.787 c -9.156,-5.745 -12.911,-10.488 -4.522,-5.202 3.921,2.473 8.101,5.289 8.947,6.54 0.823,1.206 -0.566,1.082 -4.425,-1.338 m 12.557,31.093 c -0.274,-0.966 0.854,-0.467 3.498,1.417 2.684,2.422 -1.491,0.791 -3.498,-1.417 m -61.21,-51.164 c -0.223,-0.006 -0.434,-0.146 -0.643,-0.281 -0.758,0.031 -0.915,0.32 -0.262,0.954 0.899,0.74 2.204,0.334 0.905,-0.673 m 29.329,3.801 c -4.151,-2.245 4.772,3.305 8.313,5.021 2.689,1.31 -5.55,-3.519 -8.313,-5.021 m 22.098,20.598 c -1.614,-3.038 12.029,4.26 13.212,7.582 0.977,2.778 -11.867,-5.066 -13.212,-7.582 m 17.672,39.054 c 0.592,0.393 1.19,0.778 1.793,1.171 -0.081,0.121 -0.131,0.267 -0.184,0.409 -1.59,-0.933 -2.119,-1.459 -1.609,-1.58 m -54.359,-60.738 c -2.103,-1.636 -6.012,-1.933 -3.469,0.005 1.183,0.901 2.51,1.142 3.418,1.017 1.059,-0.145 0.561,-0.623 0.051,-1.022 m 50.167,36.271 c -2.55,-2.123 -3.062,-3.618 -1.045,-3.158 3.606,0.836 11.842,5.493 11.369,7.391 -0.366,1.4 -6.596,-1.138 -10.324,-4.233 m 9.418,35.791 c 0.631,0.411 1.266,0.819 1.906,1.222 -0.093,0.119 -0.182,0.252 -0.292,0.367 -1.704,-0.98 -2.227,-1.51 -1.614,-1.589 m -32.924,-63.423 c -4.053,-2.963 7.564,2.433 11.808,5.564 3.753,2.779 -8.3,-3.004 -11.808,-5.564 m -49.753,-0.692 c 0.163,0.204 0.319,0.412 0.486,0.615 0.204,-0.128 0.416,-0.217 0.626,-0.339 -0.298,-0.587 -0.67,-0.681 -1.112,-0.276 m 90.172,43.948 c -10.622,-3.782 -11.119,-9.094 -1.163,-4.157 3.152,1.56 4.825,3.294 4.104,4.183 -0.451,0.541 -1.855,0.361 -2.941,-0.026 m -51.431,-47.686 c -4.455,-2.481 -10.552,-3.366 -5.427,-0.926 1.595,0.76 4.007,1.274 5.346,1.418 1.031,0.101 0.663,-0.169 0.081,-0.492 m 37.615,20.658 c -4.212,-0.346 -9.866,-3.946 -11.695,-5.259 -5.708,-4.124 -3.081,-3.863 4.63,-0.821 3.057,1.204 6.575,2.983 7.887,4.594 0.843,1.028 0.416,1.582 -0.822,1.486 m -64.831,-17.807 c 0.694,0.566 1.549,0.477 2.168,0.053 2.173,-1.548 -4.706,-2.128 -2.168,-0.053 m 80.828,52.014 c -0.502,-2.265 10.765,1.915 10.132,4.279 -0.568,2.101 -9.707,-2.473 -10.132,-4.279 m -36.938,-49.218 c -4.83,-1.099 -12.936,-4.848 -10.07,-3.55 1.991,0.899 7.06,2.073 9.672,3.074 1.248,0.47 1.007,0.619 0.398,0.476 m 33.869,25.062 c -4.693,-0.402 -10.327,-3.763 -12.142,-5.297 -8.653,-7.327 10.614,-3.067 14.194,3.303 0.839,1.488 -0.58,2.108 -2.052,1.994 m 14.963,38.983 c -5.592,-3.542 2.379,-2.632 5.961,0.562 -0.317,0.258 0.525,1.338 -0.573,1.027 -0.643,0.344 -2.727,-0.357 -5.388,-1.589 m -75.829,-68.122 c -2.459,-1.448 -7.194,-0.707 -4.968,0.711 0.876,0.556 2.625,0.781 4.378,0.332 1.148,-0.281 1.227,-0.653 0.59,-1.043 m 73.77,39.885 c -10.679,-0.391 -17.857,-8.81 -10.408,-8.203 5.583,0.458 12.163,3.239 13.158,5.943 0.592,1.608 -1.226,2.319 -2.75,2.26 m 14.158,40.463 c 1.558,1.525 -1.675,1.18 -4.512,-0.557 -1.496,-1.532 1.639,-1.1 4.512,0.557 m -54.163,-72.473 c -3.057,-1.529 -4.42,-2.448 -2.622,-2.246 2.606,0.315 8.761,1.534 11.879,3.206 5.512,2.97 -4.201,1.558 -9.257,-0.96 m -57.877,3.94 c -0.189,0.097 -0.338,0.045 -0.491,-0.018 -0.633,0.437 -0.827,0.896 -0.404,1.366 0.6,0.478 1.783,-0.761 0.895,-1.348 m 115.548,79.898 c 0.744,0.306 1.493,0.61 2.238,0.911 -0.115,0.165 -0.199,0.355 -0.299,0.529 -1.981,-0.682 -2.616,-1.169 -1.939,-1.44 M 195.986,408.09 c -5.354,-0.443 -0.47,1.305 5.014,1.328 4.345,0.029 -1.369,-1.008 -5.014,-1.328 m 64.632,44.472 c 1.858,-2.426 14.15,0.535 15.653,4.273 2.352,5.982 -18.251,-0.804 -15.653,-4.273 m -15.039,-25.323 c -7.393,0.152 -16.615,-5.711 -14.298,-7.013 1.767,-0.958 10.934,-0.562 15.794,3.354 2.434,1.96 1.648,3.591 -1.496,3.659 m -70.673,-12.09 c -1.112,-1.065 -4.862,0.729 -3.407,1.98 0.67,0.565 1.74,0.166 2.707,-0.525 1.119,-0.823 0.957,-1.207 0.7,-1.455 m 98.48,50.774 c 0.22,-3.379 16.071,-1.038 15.251,3.741 -0.749,4.304 -15.387,-0.791 -15.251,-3.741 m 10.73,46.011 c 0.793,0.331 1.567,0.649 2.378,0.981 -0.129,0.17 -0.277,0.321 -0.418,0.48 -2.129,-0.747 -2.78,-1.248 -1.96,-1.461 M 210.202,410.52 c -6.217,-1.431 0.022,-1.309 6.98,-0.015 6.418,1.207 -1.391,1.301 -6.98,0.015 m -54.968,27.515 c 0.12,0.207 0.238,0.398 0.353,0.602 0.127,-0.26 0.28,-0.49 0.403,-0.743 -0.215,-0.643 -0.468,-0.594 -0.756,0.141 m 92.569,-6.482 c -5.654,-5.561 9.311,-7.343 16.277,-0.248 5.684,5.819 -10.922,5.484 -16.277,0.248 m 48.176,52.371 c -13.119,-0.825 -13.187,-8.237 -1.04,-5.577 3.87,0.845 5.846,2.693 4.829,4.33 -0.643,0.989 -2.414,1.328 -3.789,1.247 M 184.607,411.735 c -3.541,0.919 -2.427,2.645 0.43,1.919 0.616,-0.164 1.365,-0.451 1.871,-0.65 4.099,-1.599 1.165,-2.192 -2.301,-1.269 m 95.01,34.139 c -4.906,1.869 -11.659,-0.634 -14.144,-2.405 -2.941,-2.114 -3.959,-4.956 -0.374,-6.21 5.331,-1.863 13.602,-0.265 16.126,3.618 1.736,2.688 -0.169,4.443 -1.608,4.997 m -45.303,-29.288 c -5.415,-0.096 -12.728,-2.95 -11.619,-4.102 0.944,-0.998 7.195,-1.605 11.951,0.012 4.839,1.657 3.92,4.159 -0.332,4.09 m 68.053,79.213 c -7.156,-1.882 -5.654,-5.655 3.281,-3.757 2.799,0.588 5.844,1.814 3.991,3.579 -1.063,0.999 -2.537,1.414 -7.272,0.178 M 163.041,431.446 c 0.406,0.475 0.986,-0.039 1.473,-0.953 1.715,-3.285 -2.99,-0.811 -1.473,0.953 m 41.699,-22.168 c 0.661,0.241 -9.411,0.84 -9.876,1.387 -0.433,0.535 3.236,-0.448 6.286,-1.026 2.765,-0.516 3.396,-0.436 3.59,-0.361 m 75.688,44.284 c -1.883,-2.222 -1.446,-4.891 3.649,-6.11 6.083,-1.451 12.54,-0.106 14.377,4.09 2.411,5.568 -13.185,7.643 -18.026,2.02 m 31.609,54.987 c -6.898,-2.89 3.34,-4.144 7.68,-1.054 -0.416,0.445 0.578,1.584 -0.828,1.511 -0.85,0.64 -3.514,0.33 -6.852,-0.457 m -57.086,-86.02 c -8.55,3.047 -21.371,-4.154 -13.952,-7.432 1.969,-0.865 5.939,-1.373 9.318,-0.629 7.675,1.7 8.415,6.693 4.634,8.061 m -79.288,-1.466 c -0.907,-1.229 -5.135,2.546 -4.139,3.749 0.383,0.462 1.43,0.042 2.972,-1.612 1.029,-1.074 1.403,-1.83 1.167,-2.137 m 132.493,48.387 c -13.097,1.311 -17.383,-7.992 -5.828,-10.122 5.69,-1.042 11.467,0.801 12.598,3.977 1.072,3.059 -0.983,5.553 -6.77,6.145 m 18.481,51.473 c 1.904,1.532 -2.262,1.874 -5.811,0.424 -1.818,-1.534 2.233,-1.767 5.811,-0.424 M 213.131,409.545 c -7.831,-0.498 -4.603,-2.893 4.463,-2.765 7.512,0.104 2.931,3.224 -4.463,2.765 m -54.385,39.69 c -0.103,0.207 -0.192,0.172 -0.289,0.153 -0.333,0.833 -0.377,1.543 -0.071,2.062 0.417,0.448 0.954,-1.719 0.36,-2.215 m 152.567,27.382 c 0.533,-5.17 19.957,-7.286 19.552,0.684 -0.375,6.849 -20.058,4.791 -19.552,-0.684 m 19.111,57.279 c 0.945,0.224 1.883,0.426 2.818,0.632 -0.133,0.235 -0.252,0.473 -0.404,0.708 -2.527,-0.423 -3.324,-0.859 -2.414,-1.34 M 188.354,414.15 c 0.031,-0.359 -2.331,0.538 -3.662,1.203 -5.456,2.696 -4.435,4.266 1.316,0.427 1.634,-1.077 2.34,-1.522 2.346,-1.63 m 47.607,-2.863 c -0.677,0.066 -3.533,-0.023 -4.589,-0.188 -6.446,-1.013 -8.44,-2.64 -6.442,-4.462 1.632,-1.476 6.493,-2.613 10.904,-1.665 6.117,1.334 5.358,5.859 0.127,6.315 m -70.144,26.605 c -0.679,-1.212 -2.666,3.069 -1.978,4.39 0.309,0.565 0.805,0.254 1.615,-1.91 0.47,-1.295 0.616,-2.023 0.363,-2.48 m 161.257,51.945 c 1.074,-1.842 6.289,-3.66 11.934,-3.559 4.129,0.074 6.861,1.95 6.719,4.288 -0.518,7.059 -21.766,4.674 -18.653,-0.729 m 10.02,57.183 c 0.99,0.252 2.013,0.512 3.004,0.749 -0.166,0.213 -0.36,0.436 -0.543,0.647 -2.746,-0.532 -3.537,-1.007 -2.461,-1.396 M 196.991,410.534 c -6.923,2.194 -5.55,1.145 1.39,-1.748 6.928,-2.881 4.804,-0.2 -1.39,1.748 m -38.395,66.123 c 0.124,0.252 0.252,0.491 0.376,0.732 -0.005,-0.363 0.007,-0.734 0.016,-1.092 -0.311,-0.825 -0.456,-0.697 -0.392,0.36 M 296.457,445.12 c -7.081,-8.031 8.854,-20.192 18.365,-9.28 7.809,9.05 -11.707,16.768 -18.365,9.28 m 47.797,57.978 c 4.877,-2.645 17.691,-2.326 15.689,2.512 -2.752,6.603 -24.211,2.13 -15.689,-2.512 M 172.225,428.632 c -2.512,3.104 -2.363,5.869 -0.759,3.791 0.346,-0.45 0.837,-1.232 1.175,-1.768 2.722,-4.305 2.003,-5.011 -0.416,-2.023 m 162.754,27.433 c -5.571,5.203 -13.938,4.072 -16.991,2.126 -3.607,-2.325 -4.869,-7.222 -0.98,-11.247 6.16,-6.335 15.82,-6.334 19.338,-0.39 2.416,4.126 0.332,7.936 -1.367,9.511 m 27.667,67.011 c -9.123,-0.635 -6.91,-6.06 4.454,-5.92 3.595,0.037 7.482,0.894 4.978,3.785 -1.396,1.618 -3.348,2.543 -9.432,2.135 M 219.549,403.386 c -0.051,1.387 -3.446,2.745 -7.643,3.299 -3.925,0.523 -6.457,0.522 -6.54,-0.345 -0.126,-1.289 3.213,-3.614 7.525,-4.536 3.976,-0.84 6.733,-0.031 6.658,1.582 m -58.346,62.524 c 0.337,0.635 0.524,-0.191 0.569,-1.627 0.182,-5.101 -1.774,-0.61 -0.569,1.627 m 189.883,4.736 c -7.721,3.355 -13.818,0.934 -15.678,-2.542 -4.756,-8.867 16.549,-21.916 22.313,-9.335 1.978,4.398 0.263,8.87 -6.635,11.877 M 184.659,416.817 c 2.794,-1.986 -4.766,4.01 -6.28,6.235 -1.244,1.881 0.512,-0.35 2.788,-2.908 2.046,-2.278 2.992,-2.957 3.492,-3.327 m 189.833,120.585 c -7.687,-1.032 -2.418,-4.737 5.545,-4.1 3.559,0.295 4.387,1.688 2.637,2.897 -1.604,1.134 -2.541,1.95 -8.182,1.203 M 166.041,447.719 c -0.373,-2.094 -2.222,4.96 -1.672,6.704 0.279,0.88 0.684,-0.095 1.225,-2.821 0.54,-2.682 0.552,-3.329 0.447,-3.883 m 218.496,103.829 c 0.315,-0.629 0.283,-1.395 1.592,-1.645 1.699,0.078 3.4,0.162 5.127,0.213 3.113,1.386 -2.891,2.714 -6.719,1.432 m -13.605,-67.821 c -16.168,6.235 -21.409,-6.576 -7.528,-13.888 7.047,-3.698 14.258,-2.544 15.817,2.116 1.484,4.488 -0.957,8.949 -8.289,11.772 m -206.598,7.89 c -0.299,0.928 1.175,4.185 0.414,1.072 -0.089,-0.492 -0.257,-0.743 -0.414,-1.072 m 28.714,-80.588 c -7.007,4.21 -9.221,3.623 -1.298,-2.258 6.453,-4.78 7.866,-1.678 1.298,2.258 m 182.495,84.389 c -2.654,-8.171 23.096,-19.877 23.965,-7.502 0.607,9.627 -21.955,13.48 -23.965,7.502 m 21.756,70.342 c 1.221,0.102 2.478,0.201 3.715,0.299 -0.2,0.314 -0.389,0.631 -0.594,0.941 -3.328,-0.072 -4.381,-0.525 -3.121,-1.24 M 172.049,433.971 c 0.433,-1.507 -3.548,6.662 -3.579,8.758 -0.034,1.121 0.666,-1.03 1.697,-3.856 0.904,-2.544 1.694,-4.223 1.882,-4.902 m 168.006,7.907 c -6.881,0.433 -12.053,-5.11 -12.514,-11.038 -0.908,-11.636 11.156,-22.816 21.469,-12.02 7.488,7.905 1.025,22.409 -8.955,23.058 m -128.39,-45.09 c 5.64,3.41 -9.182,8.99 -12.634,8.188 -3.012,-0.722 -0.47,-5.074 5.543,-7.73 3.343,-1.479 5.84,-1.199 7.091,-0.458 M 164.48,475.99 c -0.57,-1.396 -0.328,3.697 0.297,5.117 0.262,0.602 0.408,0.304 0.205,-2.006 -0.131,-1.56 -0.278,-2.557 -0.502,-3.111 m 230.805,34.123 c -0.639,-6.916 22.822,-14.981 22.977,-6.065 0.127,8.945 -22.405,11.725 -22.977,6.065 M 179.814,420.368 c 1.17,-0.22 -5.177,8.88 -6.09,10.193 -0.55,0.797 0.476,-2.177 1.948,-4.912 1.645,-3.089 3.431,-5.14 4.142,-5.281 m 198.463,19.556 c -3.168,10.099 -16.752,14.674 -22.554,8.331 -9.817,-10.791 6.455,-36.823 19.834,-21.218 3.127,3.656 3.996,8.817 2.72,12.887 m 45.069,88.459 c -10.924,1.44 -9.184,-6.421 4.256,-9.127 4.271,-0.875 9.14,-0.693 6.648,3.865 -1.414,2.568 -3.518,4.29 -10.904,5.262 M 165.887,460.74 c -0.231,-4.171 -0.723,9.946 -0.211,7.226 0.056,-0.325 0.103,-1.519 0.174,-3.641 0.064,-2.755 0.056,-3.212 0.037,-3.585 m 273.279,82.391 c -0.803,-2.071 1.758,-3.424 7.781,-4.319 6.305,0.62 -2.945,5.802 -7.781,4.319 m -40.072,-85.12 c -7.813,6.985 -15.348,5.432 -18.389,0.987 -7.691,-11.259 12.223,-36.247 22.516,-19.895 3.607,5.767 2.947,12.569 -4.127,18.908 m -227.419,52.984 c 0.151,0.291 0.284,0.563 0.43,0.849 -0.116,-0.448 -0.246,-0.891 -0.355,-1.329 -0.428,-0.986 -0.454,-0.813 -0.075,0.48 M 187.89,407.138 c 5.632,-1.614 -3.076,7.876 -6.472,10.257 -2.569,1.795 -1.654,-1.855 1.024,-5.541 2.742,-3.756 4.404,-4.424 5.448,-4.716 M 407.6,471.58 c -5.524,-10.381 16.203,-32.073 23.082,-17.459 5.812,12.494 -18.403,26.2 -23.082,17.459 m 50.513,87.578 c 1.44,-0.172 2.844,-0.375 4.28,-0.572 -0.151,0.472 -0.207,0.961 -0.321,1.431 -3.767,0.756 -5.041,0.445 -3.959,-0.859 M 168.043,446.78 c -1.09,4.849 -1.32,8.783 -1.012,5.803 0.08,-0.657 0.219,-1.81 0.336,-2.604 0.932,-6.433 1.707,-7.839 0.676,-3.199 m 0.583,46.767 c 0.014,1.15 1.082,4.363 0.321,1.073 -0.109,-0.523 -0.214,-0.766 -0.321,-1.073 m 32.133,-99.513 c 1.748,1.26 0.496,4.274 -3.309,7.095 -3.572,2.64 -7.218,4.275 -8.779,3.741 -2.196,-0.751 -0.784,-4.783 2.964,-8.225 3.445,-3.133 7.123,-4.035 9.124,-2.611 m 235.261,91.285 c -3.647,-7.583 16.755,-26.445 20.664,-13.754 3.16,10.366 -17.586,20.081 -20.664,13.754 M 172.482,428.306 c 1.354,-1.328 0.53,1.239 -0.092,2.986 -2.613,7.254 -5.16,11.211 -2.161,1.682 0.834,-2.663 1.751,-4.145 2.253,-4.668 m 214.584,-22.741 c -2.156,11.944 -11.902,14.441 -16.257,12.45 -9.52,-4.292 -11.002,-15.084 -9.401,-23.766 1.696,-9.138 7.963,-16.682 18.662,-7.48 5.705,4.926 7.993,13.273 6.996,18.796 m 88.151,93.947 c -11.127,5.732 -11.346,-3.746 -1.705,-9.473 4.58,-2.731 9.187,-3.936 8.324,1.914 -0.522,3.505 -2.367,5.366 -6.619,7.559 M 167.309,481.148 c 0.051,0.198 -0.023,-0.482 -0.26,-2.519 -0.654,-5.538 0.004,1.501 0.26,2.519 m 44.498,-101.686 c 2.964,0.991 3.627,2.592 3.876,3.63 1.422,6.163 -15.463,13.22 -18.44,6.963 -0.771,-1.632 0.681,-5.346 3.946,-7.867 4.65,-3.596 8.607,-3.379 10.618,-2.726 m 287.816,136.514 c -6.664,-0.456 8.371,-8.596 3.934,-2.472 -0.02,0.83 -2.303,1.675 -3.934,2.472 m -82.412,-101.75 c -8.959,24.851 -29.238,3.467 -21.324,-16.49 3.371,-8.452 10.467,-10.659 17.504,-3.238 5.392,5.707 6.025,13.486 3.82,19.728 m -240.046,-2.003 c 5.116,-3.709 0.049,6.965 -2.886,10.227 -2.363,2.648 -2.446,-0.676 -0.779,-4.716 1.483,-3.63 2.781,-4.867 3.665,-5.511 m -11.193,46.485 c 0.303,-1.645 0.23,5.146 0.07,6.821 -0.069,0.841 -0.217,-0.659 -0.247,-2.898 -0.037,-2.637 0.099,-3.493 0.177,-3.923 m 284.87,-38.582 c -7.863,23.355 -24.84,9.697 -20.842,-5.258 3.961,-14.888 13.609,-17.231 19.236,-7.85 2.549,4.288 2.321,10.911 1.606,13.108 M 185.176,401.889 c -5.932,7.8 -12.04,6.918 -6.549,-2.039 5.409,-8.777 11.786,-4.873 6.549,2.039 m 149.912,-26.502 c -18.125,-6.827 -28.188,-41.202 -3.67,-33.669 21.727,6.722 21.85,40.47 3.67,33.669 M 482.5,435.711 c -9.953,14.072 -18.178,0.511 -10.932,-11.886 4.055,-6.907 9.088,-9.932 12.868,-2.188 2.425,4.894 1.673,8.98 -1.936,14.074 m -316.124,4.647 c 1.323,-1.838 0.033,7.206 -0.805,8.819 -0.378,0.729 -0.728,-0.365 -0.346,-4.149 0.257,-2.456 0.745,-4.135 1.151,-4.67 m 347.044,9.18 c -3.311,-2.629 -2.438,-6.389 2.432,-11.649 7.125,-3.262 4.238,10.772 -2.432,11.649 M 379.838,353.973 c 4.232,13.628 -3.027,20.948 -7.777,20.767 -22.038,-0.839 -33.551,-49.257 -5.563,-35.758 7.039,3.386 11.881,10.38 13.34,14.991 M 170.311,496.362 c 0.055,0.263 0.108,0.519 0.179,0.783 -0.131,-0.493 -0.255,-0.976 -0.37,-1.456 -0.221,-0.949 -0.168,-0.728 0.191,0.673 m 24.67,-110.244 c -7.744,7.735 -18.405,5.484 -9.606,-4.769 7.273,-8.417 16.877,-2.512 9.606,4.769 m -26.014,38.729 c -1.315,5.63 -3.765,9.133 -3.889,5.445 -0.031,-0.796 0.173,-2.131 0.344,-3.047 1.359,-7.382 4.808,-7.827 3.545,-2.398 m 232.611,-53.168 c -15.359,-8.762 -18.135,-44.627 2.149,-33.291 18.332,10.341 11.449,40.974 -2.149,33.291 m 151.16,89.751 c 1.231,-1.24 2.526,-2.53 3.787,-3.805 0.522,0.834 0.969,1.695 1.475,2.517 -2.969,3.747 -4.766,4.13 -5.262,1.288 M 165.8,476.175 c 0.077,0.383 0.126,0.39 0.126,0.39 0.246,1.418 0.393,2.493 0.383,3.073 -0.05,0.499 -0.625,-2.987 -0.509,-3.463 m 42.209,-116.492 c 3.789,2.306 3.794,7.142 -1.032,10.765 -4.519,3.375 -10.511,4.619 -14.022,3.258 -4.624,-1.816 -4.034,-7.223 0.785,-11.598 4.449,-4.033 10.143,-4.941 14.269,-2.425 m 233.77,11.482 c -11.56,-6.994 -13.131,-40.91 3.936,-28.981 14.494,10.162 6.088,34.963 -3.936,28.981 m -270.936,30.396 c 3.078,-1.105 2.526,2.259 1.842,4.384 -2.855,8.742 -9.905,11.752 -5.766,0.729 1.181,-3.116 2.805,-4.706 3.924,-5.113 m 146.694,-90.393 c 7.744,7.174 8.854,14.773 8.59,17.689 -0.66,7.299 -9.752,9.237 -18.877,5.003 -18.125,-8.442 -26.307,-31.216 -6.197,-29.897 9.232,0.624 13.988,4.902 16.484,7.205 m 177.861,53.221 c -3.343,11.699 -15.771,3.527 -12.859,-10.779 1.447,-6.935 5.664,-7.711 9.662,-3.37 4.684,5.072 4.207,10.464 3.197,14.149 m -332.492,97.727 c -0.229,0.619 -0.475,-0.63 -0.576,-2.579 -0.355,-7.002 1.334,0.524 0.576,2.579 m 58.776,-107.46 c -5.59,2.933 -13.646,3.126 -18.137,0.787 -5.614,-2.947 -5.093,-9.481 0.654,-13.795 13.436,-10.004 31.137,5.791 17.483,13.008 m 318.787,15.409 c -7.518,3.814 -2.174,-16.995 0.976,-5.921 1.034,1.14 -0.343,3.784 -0.976,5.921 M 355.148,306.578 c 14.239,28.59 -22.027,19.619 -31.515,-2.461 -3.951,-9.243 0.236,-15.207 11.846,-12.952 9.173,1.832 16.16,8.4 19.669,15.413 m -181.135,74.633 c 8.896,-4.109 3.82,9.603 -1.674,13.02 -4.268,2.637 -5.632,-1.554 -3.632,-6.466 1.796,-4.42 3.828,-5.869 5.306,-6.554 m 65.216,-43.251 c -6.822,2.812 -17.196,1.73 -22.993,-1.894 -6.882,-4.327 -6.318,-12.017 0.864,-16.277 16.82,-9.902 38.398,11.473 22.129,18.171 m -79.132,98.266 c 1.3,-1.662 1.231,6.15 0.006,7.77 -0.622,0.825 -0.938,-0.922 -0.874,-3.466 0.078,-2.982 0.535,-3.901 0.868,-4.304 M 387.01,312.891 c -16.963,0.601 -33.315,-30.784 -20.178,-33.505 2.344,-0.464 4.166,-0.033 8.729,1.596 18.238,6.47 20.179,31.52 11.449,31.909 M 183.644,359.03 c 9.226,2.098 -1.241,16.475 -9.331,16.084 -4.151,-0.205 -5.024,-4.467 -1.406,-10.213 3.298,-5.216 7.3,-6.651 10.737,-5.871 m 74.877,-38.663 c -18.051,4.924 -44.53,-14.19 -23.015,-22.994 19.669,-7.978 41.756,17.843 23.015,22.994 M 423.74,297.632 c -14.373,-4.988 -19.492,-31.611 -4.812,-25.98 15.402,5.921 17.302,30.321 4.812,25.98 M 159.037,414.165 c 2.989,-1.942 1.264,8.616 -0.935,10.308 -0.962,0.731 -1.845,-0.586 -1.256,-4.965 0.386,-2.861 1.319,-4.777 2.191,-5.343 M 475.988,282.377 c -6.082,-0.624 -9.258,-5.027 -10.088,-13.48 3.401,-7.817 15.602,8.211 10.088,13.48 m -197.217,-4.179 c 12.336,8.002 11.733,17.944 7.901,20.565 -17.668,11.887 -54.997,-17.451 -27.14,-23.888 7.245,-1.636 15.238,0.705 19.239,3.323 M 162.376,478.063 c -0.029,0.264 -0.031,0.551 -0.048,0.824 -0.138,-0.544 -0.283,-1.063 -0.415,-1.615 -0.036,-1.01 0.114,-0.753 0.463,0.791 m 32.62,-130.32 c -9.318,10.257 -27.366,7.487 -16.737,-6.174 8.977,-11.455 25.548,-3.549 16.737,6.174 m -33.643,49.116 c -1.909,7.938 -7.975,10.714 -6.22,1.578 1.86,-9.564 7.837,-8.32 6.22,-1.578 M 307.801,279.226 c -18.147,1.945 -42.804,-23.04 -20.727,-26.663 20.916,-3.355 37.399,24.798 20.727,26.663 m 220.988,-10.175 c -0.154,-2.182 -0.33,-4.428 -0.553,-6.628 1.489,0.519 3.014,1.091 4.502,1.637 1.34,6.076 -0.021,7.725 -3.949,4.991 M 156.064,455.412 c 0.093,0.419 0.185,0.432 0.269,0.455 0.314,1.577 0.391,2.78 0.152,3.442 -0.36,0.51 -0.972,-3.397 -0.421,-3.897 m 49.225,-144.213 c 6.284,2.746 8.078,9.421 2.172,14.575 -5.492,4.775 -14.244,6.602 -20.003,5.042 -7.417,-2.013 -7.941,-8.84 -2.151,-14.98 5.368,-5.676 13.264,-7.566 19.982,-4.637 M 339.967,255.04 c -14.571,1.307 -39.088,-23.371 -17.854,-24.804 18.948,-1.191 30.821,23.533 17.854,24.804 M 159.212,368.187 c 8.326,-4.647 5.348,9.117 -0.051,13.335 -4.95,3.843 -6.724,-0.907 -4.386,-7.395 1.333,-3.684 3.098,-5.214 4.437,-5.94 m 62.111,-65.582 c -14.64,9.888 -41.713,0.567 -24.986,-13.82 15.024,-12.818 39.853,3.711 24.986,13.82 M 380.57,216.727 c 6.625,11.498 -10.744,12.572 -19.299,-0.439 -4.05,-6.194 -1.128,-9.387 5.465,-8.585 7.914,1.017 11.727,5.467 13.834,9.024 M 151.288,439.514 c -0.559,0.719 -0.933,-0.673 -0.996,-2.913 -0.193,-8.055 2.831,0.458 0.996,2.913 M 424.857,192.568 c -3.433,7.963 -16.492,-11.938 -4.283,-5.302 1.918,0.179 2.983,3.208 4.283,5.302 M 229.869,257.27 c 26.723,7.048 7.176,25.144 -11.056,21.163 -14.077,-3.089 -15.41,-12.235 -6.191,-18.199 5.757,-3.701 13.379,-3.973 17.247,-2.964 m -62.096,93.508 c -2.373,4.915 -6.952,8.557 -10.1,9.136 -4.204,0.772 -5.186,-4.306 -3.441,-9.07 4.875,-13.314 18.294,-9.97 13.541,-0.066 m -21.116,58.313 c 2.371,-1.803 1.956,7.278 -0.015,9.213 -0.917,0.864 -1.79,0.084 -1.559,-4.342 0.14,-2.67 0.618,-4.149 1.574,-4.871 M 261.239,239.906 c -0.035,5.36 -8.132,9.025 -16.463,8.334 -15.207,-1.26 -23.416,-12.962 -9.804,-18.735 10.772,-4.554 26.29,2.444 26.267,10.401 m -91.402,74.028 c 13.691,0.973 2.068,20.279 -9.89,21.206 -5.982,0.455 -7.84,-4.422 -3.894,-12.031 3.632,-6.963 8.828,-9.51 13.784,-9.175 M 277.47,212.056 c -13.104,5.185 -30.523,-9.183 -17.595,-14.239 13.932,-5.432 29.268,9.621 17.595,14.239 M 143.116,384.29 c 4.52,-2.979 2.5,9.931 -0.641,12.24 -1.635,1.184 -2.729,-0.677 -2.235,-5.536 0.508,-4.827 1.679,-5.901 2.876,-6.704 m 31.809,-99.674 c 19.588,0.075 5.631,21.433 -8.817,22.833 -10.127,0.976 -11.04,-6.966 -5.593,-14.655 4.206,-5.922 9.643,-8.219 14.41,-8.178 M 306.828,170.325 c -4.838,3.35 -9.775,2.42 -15.264,-2.474 -1.982,-6.977 16.219,-4.303 15.264,2.474 M 148.13,457.851 c -0.068,0.337 -0.126,0.657 -0.207,0.99 -0.164,-0.59 -0.331,-1.2 -0.496,-1.795 0.097,-1.208 0.334,-0.936 0.703,0.805 m -3.457,-94.383 c -1.776,9.714 -10.17,14.392 -8.627,3.301 1.647,-11.734 10.132,-11.601 8.627,-3.301 m 41.641,-92.355 c -12.252,8.093 -26.027,2.436 -19.018,-8.205 12.375,-18.661 37.005,-3.701 19.018,8.205 M 339.318,128.647 c -1.531,-1.304 -3.095,-2.552 -4.611,-3.748 1.498,-0.604 2.961,-1.253 4.436,-1.843 4.939,2.952 4.875,4.843 0.175,5.591 M 139.753,432.918 c 0.121,0.487 0.261,0.467 0.395,0.45 0.412,1.793 0.474,3.166 0.073,4.02 -0.567,0.702 -1.334,-3.718 -0.468,-4.47 m 51.823,-211.636 c 23.6,0.292 2.486,22.119 -12.269,16.244 -4.623,-1.841 -3.552,-7.061 2.152,-11.981 3.559,-3.048 7.724,-4.299 10.117,-4.263 m -47.303,117.769 c -3.935,10.078 -16.108,14.305 -11.217,-1.195 3.677,-12.501 16.274,-11.804 11.217,1.195 M 211.5,187.585 c 6.18,7.753 -17.107,13.884 -17.336,5.029 1.806,-1.437 2.8,-4.893 5.22,-4.966 3.188,-2.244 7.454,-1.786 12.116,-0.063 m -78.625,228.283 c -0.753,1.034 -1.299,-0.499 -1.405,-3.103 -0.408,-9.472 3.979,-0.348 1.405,3.103 m 13.894,-108.421 c -5.048,13.872 -21.882,20.015 -16.269,2.36 4.727,-14.84 20.736,-14.755 16.269,-2.36 m 79.655,-160.886 c 1.317,6.511 -15.093,2.721 -4.923,-0.565 1.224,-0.969 3.199,0.101 4.923,0.565 M 125.53,381.631 c 2.973,-2.87 2.935,7.872 0.473,10.773 -1.141,1.317 -2.29,0.701 -2.211,-4.591 0.032,-3.176 0.56,-5.047 1.738,-6.182 m 21.398,-104.29 c -6.046,11.882 -22.845,15.966 -15.91,-0.113 6.774,-15.586 21.427,-10.885 15.91,0.113 m 2.45,-37.755 c -3.677,9.299 -19.959,14.645 -14.573,2.606 5.037,-11.228 17.572,-10.4 14.573,-2.606 m -30.136,114.193 c 6.08,-6.365 4.406,11.409 -0.056,14.774 -1.825,1.394 -3.023,-1.892 -2.679,-6.832 0.317,-4.472 1.418,-6.57 2.735,-7.942 m 9.439,84.975 c -0.103,0.424 -0.176,0.837 -0.261,1.271 -0.199,-0.661 -0.415,-1.32 -0.606,-1.974 0.1,-1.468 0.396,-1.241 0.867,0.703 m 22.306,-239.527 c -1.502,4.616 -4.416,6.724 -8.771,6.764 -3.14,-3.09 7.097,-11.265 8.771,-6.764 m -31.472,129.535 c -1.181,11.818 -10.727,20.039 -9.936,6.688 0.869,-14.289 10.921,-16.858 9.936,-6.688 m 34.793,-170.047 c -1.183,0.128 -2.364,0.248 -3.568,0.419 0.6,-1.141 1.15,-2.258 1.752,-3.39 3.444,-1.024 4.036,0 1.816,2.971 m -36.264,253.33 c 0.155,0.509 0.32,0.454 0.477,0.385 0.559,1.972 0.68,3.588 0.227,4.732 -0.646,1.085 -1.698,-3.926 -0.704,-5.117 m -5.124,-106.96 c -3.845,8.235 -10.568,9.833 -8.511,-1.824 2.962,-16.719 15.249,-12.692 8.511,1.824 m -3.588,88.387 c -0.801,1.445 -1.66,0.034 -1.866,-3.701 -0.586,-10.59 4.554,-1.121 1.866,3.701 m -1.246,-132.101 c 5.097,1.801 -4.215,18.02 -6.724,12.201 0.429,-1.851 -0.053,-4.653 1.064,-5.927 0.866,-3.102 2.979,-5.011 5.66,-6.274 m -4.063,-33.392 c 2.352,3.322 -6.241,9.277 -2.408,2.136 0.295,-1.227 1.469,-1.528 2.408,-2.136 m -5.899,129.994 c 3.574,-8.393 4.82,9.059 1.459,12.485 -1.142,1.133 -2.156,-1.762 -2.307,-6.258 -0.106,-3.668 0.456,-5.32 0.848,-6.227 M 89.463,329.15 c 4.574,-9.108 4.975,9.737 0.93,13.407 -1.381,1.235 -2.347,-1.844 -2.256,-6.707 0.102,-3.991 0.812,-5.728 1.326,-6.7 m 16.677,94.121 c -0.059,0.562 -0.125,1.119 -0.184,1.655 -0.245,-0.682 -0.497,-1.42 -0.752,-2.131 0.014,-1.832 0.343,-1.663 0.936,0.476 M 81.199,308.439 c -1.276,-2.38 0.152,-8.837 2.089,-8.977 1.268,2.485 -0.246,8.741 -2.089,8.977 m -6.277,-37.478 c -0.485,0.652 -0.966,1.301 -1.433,1.948 -0.037,-1.013 -0.059,-2.003 -0.085,-3.003 1.249,-2.262 1.754,-1.917 1.518,1.055 m 18.433,124.602 c 0.21,0.529 0.356,0.398 0.509,0.251 0.723,2.152 0.973,4.003 0.615,5.57 -0.556,1.522 -2.023,-4.011 -1.124,-5.821 M 82.272,368.197 c 1.084,3.374 1.157,6.206 0.325,8.582 -1.554,-0.016 -1.993,-10.119 -0.325,-8.582 m -10.944,-23.01 c -0.207,0.707 -0.419,1.384 -0.597,2.058 -0.194,-0.857 -0.387,-1.734 -0.58,-2.568 0.394,-2.3 0.795,-2.114 1.177,0.51 m 11.802,68.016 c 0,0.652 0.003,1.337 0.013,2.036 -0.307,-0.755 -0.615,-1.51 -0.916,-2.257 -0.178,-2.219 0.12,-2.153 0.903,0.221 M 68.691,388.089 c 0.282,0.785 0.578,1.592 0.874,2.378 0.03,-0.724 0.063,-1.453 0.086,-2.162 -0.725,-2.513 -1.06,-2.591 -0.96,-0.216"
           style="fill:#231f20;fill-opacity:1;fill-rule:evenodd;stroke:none"
           id="path2335"
           inkscape:connector-curvature="0" /></g></g></g></svg>